<?xml version="1.0" standalone="no"?><!DOCTYPE svg PUBLIC "-//W3C//DTD SVG 1.1//EN" "http://www.w3.org/Graphics/SVG/1.1/DTD/svg11.dtd"><svg t="1548342740637" class="icon" style="" viewBox="0 0 1024 1024" version="1.1" xmlns="http://www.w3.org/2000/svg" p-id="3935" xmlns:xlink="http://www.w3.org/1999/xlink" width="200" height="200"><defs><style type="text/css">* { user-select: text !important; }
</style></defs><path d="M512 1024C229.229714 1024 0 794.770286 0 512S229.229714 0 512 0s512 229.229714 512 512-229.229714 512-512 512z m0-459.702857l-256-151.881143v238.336C256 675.108571 277.540571 694.857143 304.018286 694.857143h416.036571c26.477714 0 47.981714-19.748571 47.981714-44.105143v-238.336l-256 151.844571zM303.981714 329.142857c-24.758857 0-45.129143 17.225143-47.652571 39.350857a35.364571 35.364571 0 0 0-0.329143 4.754286l256 151.771429 255.963429-151.771429c0-1.682286-0.073143-3.328-0.292572-4.937143C765.001143 346.294857 744.630857 329.142857 720.018286 329.142857H303.981714z" p-id="3936" fill="#d3d6db"></path></svg>