<?xml version="1.0" standalone="no"?><!DOCTYPE svg PUBLIC "-//W3C//DTD SVG 1.1//EN" "http://www.w3.org/Graphics/SVG/1.1/DTD/svg11.dtd"><svg t="1548538263469" class="icon" style="" viewBox="0 0 1024 1024" version="1.1" xmlns="http://www.w3.org/2000/svg" p-id="3712" xmlns:xlink="http://www.w3.org/1999/xlink" width="200" height="200"><defs><style type="text/css">* { user-select: text !important; }
</style></defs><path d="M195.488 293.782h632.667c19.753 0 35.766-16.012 35.766-35.765s-16.013-35.765-35.766-35.765H195.488c-19.751 0-35.762 16.012-35.762 35.765s16.011 35.765 35.762 35.765zM828.155 476.306H195.488c-19.751 0-35.762 16.012-35.762 35.765 0 19.752 16.011 35.764 35.762 35.764h632.667c19.753 0 35.766-16.012 35.766-35.764 0-19.753-16.014-35.765-35.766-35.765zM828.155 729.125H195.488c-19.751 0-35.762 16.012-35.762 35.765s16.011 35.765 35.762 35.765h632.667c19.753 0 35.766-16.012 35.766-35.765 0-19.752-16.014-35.765-35.766-35.765z" p-id="3713" fill="#f6f7d3"></path></svg>